<svg xmlns="http://www.w3.org/2000/svg" width="56" height="56" viewBox="0 0 56 56">
  <g id="Group_9830" data-name="Group 9830" transform="translate(0 -1852)">
    <g id="Circle_Button_" data-name="Circle Button " transform="translate(0 1852)">
      <rect id="Area_SIZE:LARGE_STATE:DEFAULT_STYLE:STYLE2_" data-name="Area [SIZE:LARGE][STATE:DEFAULT][STYLE:STYLE2]" width="56" height="56" rx="28" fill="#07a0e4"/>
      <g id="Group_9877" data-name="Group 9877" transform="translate(15 14)">
        <path id="Path_7047" data-name="Path 7047" d="M0,0H27V27H0Z" fill="none"/>
        <path id="Path_7048" data-name="Path 7048" d="M13.976,5.333H23.85A1.158,1.158,0,0,1,25,6.5V22.833A1.158,1.158,0,0,1,23.85,24H3.15A1.158,1.158,0,0,1,2,22.833V4.167A1.158,1.158,0,0,1,3.15,3h8.526Zm-9.676,0V21.667H22.7v-14H13.024l-2.3-2.333ZM12.35,13.5V10h2.3v3.5H18.1v2.333H14.65v3.5h-2.3v-3.5H8.9V13.5Z" transform="translate(0)" fill="#fff"/>
      </g>
    </g>
  </g>
</svg>
