<svg xmlns="http://www.w3.org/2000/svg" width="56" height="56" viewBox="0 0 56 56">
  <g id="Group_9830" data-name="Group 9830" transform="translate(0 -1852)">
    <g id="Circle_Button_" data-name="Circle Button " transform="translate(0 1852)">
      <rect id="Area_SIZE:LARGE_STATE:DEFAULT_STYLE:STYLE2_" data-name="Area [SIZE:LARGE][STATE:DEFAULT][STYLE:STYLE2]" width="56" height="56" rx="28" fill="#07a0e4"/>
      <g id="Group_9876" data-name="Group 9876" transform="translate(15 15)">
        <path id="Path_7043" data-name="Path 7043" d="M0,0H27V27H0Z" fill="none"/>
        <path id="Path_7044" data-name="Path 7044" d="M3.427,4.768A7.327,7.327,0,0,1,13.5,4.388a7.327,7.327,0,0,1,10.065.374,7.6,7.6,0,0,1,.395,10.217l-8.849,9.013a2.254,2.254,0,0,1-3.1.118l-.125-.117L3.039,14.98A7.6,7.6,0,0,1,3.427,4.768ZM5.038,6.4a5.264,5.264,0,0,0-.166,7.185l.166.178L13.5,22.358l6.043-6.137-4.029-4.09-1.208,1.226a3.383,3.383,0,0,1-4.835,0,3.509,3.509,0,0,1,0-4.909l2.4-2.433a5.071,5.071,0,0,0-6.652.219L5.038,6.4Zm9.671,3.272a1.128,1.128,0,0,1,1.611,0l4.834,4.908.807-.817a5.264,5.264,0,0,0,.086-7.277,5.074,5.074,0,0,0-7.164-.255l-.174.169-3.626,3.682a1.17,1.17,0,0,0-.089,1.535l.089.1a1.127,1.127,0,0,0,1.512.09l.1-.09Z" transform="translate(0)" fill="#fff"/>
      </g>
    </g>
  </g>
</svg>
